<svg xmlns="http://www.w3.org/2000/svg" xmlns:xlink="http://www.w3.org/1999/xlink" version="1.1" id="Your_Icon" x="0px" y="0px" width="100px" height="100px" viewBox="0 0 100 100" enable-background="new 0 0 100 100" xml:space="preserve">
<path fill-rule="evenodd" clip-rule="evenodd" d="M0.166,49.438C0.166,75.152,20.744,96,46.125,96  c12.096,0,23.1-4.731,31.306-12.469c2.144-2.021-8.776-12.227-10.269-10.84c-5.54,5.146-12.926,8.286-21.037,8.286  c-17.193,0-31.133-14.122-31.133-31.544s13.939-31.545,31.133-31.545c17.197,0,31.135,11.108,31.135,28.53  c0,0.007,0.021,0.062,0.049,0.069L75.778,48c-3.484,0-5.931,0-5.931,0l14.826,18.023L99.5,48c0,0-2.447,0-5.931,0l-1.531-1.514  c0.017-0.006,0.05-0.015,0.05-0.021c0-25.716-20.578-43.574-45.963-43.574C20.744,2.891,0.166,23.723,0.166,49.438z M78.743,44.933  l0.115,0.023l-0.089,0.086C78.754,44.977,78.743,44.933,78.743,44.933z"/>
</svg>