<svg xmlns="http://www.w3.org/2000/svg" xmlns:xlink="http://www.w3.org/1999/xlink" version="1.1" id="Capa_1" x="0px" y="0px" width="100px" height="100px" viewBox="0 0 100 100" enable-background="new 0 0 100 100" xml:space="preserve">
<g id="Capa_13">
	<g>
		<polygon points="66.675,66.992 66.675,40.507 33.338,40.507 33.338,60.357 0,60.357 0,92.232 100,92.232 100,66.992   "/>
		<polygon points="50,7.768 53.373,18.211 64.35,18.192 55.459,24.626 58.868,35.06 50,28.592 41.133,35.06 44.544,24.626     35.653,18.192 46.629,18.211   "/>
		<polygon points="83.336,34.252 86.709,44.694 97.686,44.675 88.795,51.109 92.204,61.542 83.336,55.074 74.471,61.542     77.879,51.109 68.988,44.675 79.965,44.694   "/>
		<polygon points="16.663,27.618 20.034,38.061 31.01,38.042 22.12,44.477 25.53,54.908 16.663,48.441 7.795,54.908 11.206,44.477     2.314,38.042 13.291,38.061   "/>
	</g>
</g>
</svg>